<mxfile host="app.diagrams.net" agent="Mozilla/5.0 (Windows NT 10.0; Win64; x64) AppleWebKit/537.36 (KHTML, like Gecko) Chrome/131.0.0.0 Safari/537.36" version="24.8.6">
  <diagram name="페이지-1" id="5IZiyLtwgLsQGpxcyx1M">
    <mxGraphModel dx="1434" dy="738" grid="1" gridSize="10" guides="1" tooltips="1" connect="1" arrows="1" fold="1" page="1" pageScale="1" pageWidth="827" pageHeight="1169" math="0" shadow="0">
      <root>
        <mxCell id="0" />
        <mxCell id="1" parent="0" />
        <mxCell id="CKVd2HSpRGfKYOYEBPOX-39" style="edgeStyle=orthogonalEdgeStyle;rounded=0;orthogonalLoop=1;jettySize=auto;html=1;exitX=0;exitY=0;exitDx=80;exitDy=80;exitPerimeter=0;entryX=0.5;entryY=0;entryDx=0;entryDy=0;" edge="1" parent="1" source="CKVd2HSpRGfKYOYEBPOX-1" target="CKVd2HSpRGfKYOYEBPOX-35">
          <mxGeometry relative="1" as="geometry" />
        </mxCell>
        <mxCell id="CKVd2HSpRGfKYOYEBPOX-40" style="edgeStyle=orthogonalEdgeStyle;rounded=0;orthogonalLoop=1;jettySize=auto;html=1;exitX=0;exitY=0;exitDx=80;exitDy=80;exitPerimeter=0;entryX=0.5;entryY=0;entryDx=0;entryDy=0;" edge="1" parent="1" source="CKVd2HSpRGfKYOYEBPOX-1" target="CKVd2HSpRGfKYOYEBPOX-36">
          <mxGeometry relative="1" as="geometry" />
        </mxCell>
        <mxCell id="CKVd2HSpRGfKYOYEBPOX-41" style="edgeStyle=orthogonalEdgeStyle;rounded=0;orthogonalLoop=1;jettySize=auto;html=1;exitX=0;exitY=0;exitDx=80;exitDy=80;exitPerimeter=0;entryX=0.5;entryY=0;entryDx=0;entryDy=0;" edge="1" parent="1" source="CKVd2HSpRGfKYOYEBPOX-1" target="CKVd2HSpRGfKYOYEBPOX-38">
          <mxGeometry relative="1" as="geometry" />
        </mxCell>
        <mxCell id="CKVd2HSpRGfKYOYEBPOX-42" style="edgeStyle=orthogonalEdgeStyle;rounded=0;orthogonalLoop=1;jettySize=auto;html=1;exitX=0;exitY=0;exitDx=80;exitDy=80;exitPerimeter=0;entryX=0.5;entryY=0;entryDx=0;entryDy=0;" edge="1" parent="1" source="CKVd2HSpRGfKYOYEBPOX-1" target="CKVd2HSpRGfKYOYEBPOX-37">
          <mxGeometry relative="1" as="geometry" />
        </mxCell>
        <mxCell id="CKVd2HSpRGfKYOYEBPOX-47" style="edgeStyle=orthogonalEdgeStyle;rounded=0;orthogonalLoop=1;jettySize=auto;html=1;exitX=0;exitY=0;exitDx=0;exitDy=30;exitPerimeter=0;entryX=1;entryY=0.5;entryDx=0;entryDy=0;" edge="1" parent="1" source="CKVd2HSpRGfKYOYEBPOX-1" target="CKVd2HSpRGfKYOYEBPOX-15">
          <mxGeometry relative="1" as="geometry" />
        </mxCell>
        <mxCell id="CKVd2HSpRGfKYOYEBPOX-48" style="edgeStyle=orthogonalEdgeStyle;rounded=0;orthogonalLoop=1;jettySize=auto;html=1;exitX=0;exitY=0;exitDx=0;exitDy=30;exitPerimeter=0;entryX=1;entryY=0.5;entryDx=0;entryDy=0;" edge="1" parent="1" source="CKVd2HSpRGfKYOYEBPOX-1" target="CKVd2HSpRGfKYOYEBPOX-9">
          <mxGeometry relative="1" as="geometry" />
        </mxCell>
        <mxCell id="CKVd2HSpRGfKYOYEBPOX-1" value="클라이언트" style="shape=cube;whiteSpace=wrap;html=1;boundedLbl=1;backgroundOutline=1;darkOpacity=0.05;darkOpacity2=0.1;" vertex="1" parent="1">
          <mxGeometry x="300" y="350" width="140" height="80" as="geometry" />
        </mxCell>
        <mxCell id="CKVd2HSpRGfKYOYEBPOX-2" value="클라이언트 DB" style="shape=cylinder3;whiteSpace=wrap;html=1;boundedLbl=1;backgroundOutline=1;size=15;" vertex="1" parent="1">
          <mxGeometry x="300" y="180" width="120" height="80" as="geometry" />
        </mxCell>
        <mxCell id="CKVd2HSpRGfKYOYEBPOX-3" value="서버" style="shape=cube;whiteSpace=wrap;html=1;boundedLbl=1;backgroundOutline=1;darkOpacity=0.05;darkOpacity2=0.1;" vertex="1" parent="1">
          <mxGeometry x="300" y="880" width="220" height="80" as="geometry" />
        </mxCell>
        <mxCell id="CKVd2HSpRGfKYOYEBPOX-4" value="서버 DB" style="shape=cylinder3;whiteSpace=wrap;html=1;boundedLbl=1;backgroundOutline=1;size=15;" vertex="1" parent="1">
          <mxGeometry x="340" y="1060" width="160" height="80" as="geometry" />
        </mxCell>
        <mxCell id="CKVd2HSpRGfKYOYEBPOX-6" style="edgeStyle=orthogonalEdgeStyle;rounded=0;orthogonalLoop=1;jettySize=auto;html=1;exitX=0.5;exitY=1;exitDx=0;exitDy=0;exitPerimeter=0;entryX=0;entryY=0;entryDx=60;entryDy=0;entryPerimeter=0;" edge="1" parent="1" source="CKVd2HSpRGfKYOYEBPOX-2" target="CKVd2HSpRGfKYOYEBPOX-1">
          <mxGeometry relative="1" as="geometry" />
        </mxCell>
        <mxCell id="CKVd2HSpRGfKYOYEBPOX-7" style="edgeStyle=orthogonalEdgeStyle;rounded=0;orthogonalLoop=1;jettySize=auto;html=1;exitX=0;exitY=0;exitDx=60;exitDy=0;exitPerimeter=0;entryX=0.5;entryY=1;entryDx=0;entryDy=0;entryPerimeter=0;" edge="1" parent="1" source="CKVd2HSpRGfKYOYEBPOX-1" target="CKVd2HSpRGfKYOYEBPOX-2">
          <mxGeometry relative="1" as="geometry" />
        </mxCell>
        <mxCell id="CKVd2HSpRGfKYOYEBPOX-9" value="config.json" style="swimlane;whiteSpace=wrap;html=1;fillColor=#ffe6cc;strokeColor=#d79b00;" vertex="1" parent="1">
          <mxGeometry x="50" y="150" width="140" height="180" as="geometry" />
        </mxCell>
        <mxCell id="CKVd2HSpRGfKYOYEBPOX-10" value="서버IP" style="text;html=1;align=left;verticalAlign=middle;resizable=0;points=[];autosize=1;strokeColor=none;fillColor=none;" vertex="1" parent="CKVd2HSpRGfKYOYEBPOX-9">
          <mxGeometry y="30" width="60" height="30" as="geometry" />
        </mxCell>
        <mxCell id="CKVd2HSpRGfKYOYEBPOX-11" value="서버 PORT" style="text;html=1;align=left;verticalAlign=middle;resizable=0;points=[];autosize=1;strokeColor=none;fillColor=none;" vertex="1" parent="CKVd2HSpRGfKYOYEBPOX-9">
          <mxGeometry y="60" width="80" height="30" as="geometry" />
        </mxCell>
        <mxCell id="CKVd2HSpRGfKYOYEBPOX-12" value="저장한 ID" style="text;html=1;align=left;verticalAlign=middle;resizable=0;points=[];autosize=1;strokeColor=none;fillColor=none;" vertex="1" parent="CKVd2HSpRGfKYOYEBPOX-9">
          <mxGeometry y="90" width="70" height="30" as="geometry" />
        </mxCell>
        <mxCell id="CKVd2HSpRGfKYOYEBPOX-13" value="저장한 비밀번호" style="text;html=1;align=left;verticalAlign=middle;resizable=0;points=[];autosize=1;strokeColor=none;fillColor=none;" vertex="1" parent="CKVd2HSpRGfKYOYEBPOX-9">
          <mxGeometry y="120" width="110" height="30" as="geometry" />
        </mxCell>
        <mxCell id="CKVd2HSpRGfKYOYEBPOX-14" value="최근 로그인한 ID" style="text;html=1;align=left;verticalAlign=middle;resizable=0;points=[];autosize=1;strokeColor=none;fillColor=none;" vertex="1" parent="CKVd2HSpRGfKYOYEBPOX-9">
          <mxGeometry y="150" width="110" height="30" as="geometry" />
        </mxCell>
        <mxCell id="CKVd2HSpRGfKYOYEBPOX-50" style="edgeStyle=orthogonalEdgeStyle;rounded=0;orthogonalLoop=1;jettySize=auto;html=1;exitX=1;exitY=0.5;exitDx=0;exitDy=0;entryX=0;entryY=0;entryDx=0;entryDy=30;entryPerimeter=0;" edge="1" parent="1" source="CKVd2HSpRGfKYOYEBPOX-15" target="CKVd2HSpRGfKYOYEBPOX-1">
          <mxGeometry relative="1" as="geometry">
            <mxPoint x="270" y="470" as="targetPoint" />
          </mxGeometry>
        </mxCell>
        <mxCell id="CKVd2HSpRGfKYOYEBPOX-15" value="userList.json" style="swimlane;whiteSpace=wrap;html=1;fillColor=#ffe6cc;strokeColor=#d79b00;" vertex="1" parent="1">
          <mxGeometry x="50" y="370" width="140" height="120" as="geometry" />
        </mxCell>
        <mxCell id="CKVd2HSpRGfKYOYEBPOX-17" value="사용자 ID" style="text;html=1;align=left;verticalAlign=middle;resizable=0;points=[];autosize=1;strokeColor=none;fillColor=none;" vertex="1" parent="CKVd2HSpRGfKYOYEBPOX-15">
          <mxGeometry y="25" width="70" height="30" as="geometry" />
        </mxCell>
        <mxCell id="CKVd2HSpRGfKYOYEBPOX-18" value="사용자 이름" style="text;html=1;align=left;verticalAlign=middle;resizable=0;points=[];autosize=1;strokeColor=none;fillColor=none;" vertex="1" parent="CKVd2HSpRGfKYOYEBPOX-15">
          <mxGeometry y="55" width="90" height="30" as="geometry" />
        </mxCell>
        <mxCell id="CKVd2HSpRGfKYOYEBPOX-19" value="사용자 닉네임" style="text;html=1;align=left;verticalAlign=middle;resizable=0;points=[];autosize=1;strokeColor=none;fillColor=none;" vertex="1" parent="CKVd2HSpRGfKYOYEBPOX-15">
          <mxGeometry y="85" width="100" height="30" as="geometry" />
        </mxCell>
        <mxCell id="CKVd2HSpRGfKYOYEBPOX-23" style="edgeStyle=orthogonalEdgeStyle;rounded=0;orthogonalLoop=1;jettySize=auto;html=1;exitX=0;exitY=0;exitDx=120;exitDy=80;exitPerimeter=0;entryX=0.5;entryY=0;entryDx=0;entryDy=0;entryPerimeter=0;" edge="1" parent="1" source="CKVd2HSpRGfKYOYEBPOX-3" target="CKVd2HSpRGfKYOYEBPOX-4">
          <mxGeometry relative="1" as="geometry" />
        </mxCell>
        <mxCell id="CKVd2HSpRGfKYOYEBPOX-24" style="edgeStyle=orthogonalEdgeStyle;rounded=0;orthogonalLoop=1;jettySize=auto;html=1;exitX=0.5;exitY=0;exitDx=0;exitDy=0;exitPerimeter=0;entryX=0;entryY=0;entryDx=120;entryDy=80;entryPerimeter=0;" edge="1" parent="1" source="CKVd2HSpRGfKYOYEBPOX-4" target="CKVd2HSpRGfKYOYEBPOX-3">
          <mxGeometry relative="1" as="geometry" />
        </mxCell>
        <mxCell id="CKVd2HSpRGfKYOYEBPOX-35" value="로그인" style="rounded=0;whiteSpace=wrap;html=1;" vertex="1" parent="1">
          <mxGeometry x="40" y="650" width="120" height="60" as="geometry" />
        </mxCell>
        <mxCell id="CKVd2HSpRGfKYOYEBPOX-44" style="edgeStyle=orthogonalEdgeStyle;rounded=0;orthogonalLoop=1;jettySize=auto;html=1;exitX=0.5;exitY=1;exitDx=0;exitDy=0;entryX=0;entryY=0;entryDx=100;entryDy=0;entryPerimeter=0;" edge="1" parent="1" source="CKVd2HSpRGfKYOYEBPOX-36" target="CKVd2HSpRGfKYOYEBPOX-3">
          <mxGeometry relative="1" as="geometry">
            <mxPoint x="360" y="770" as="targetPoint" />
          </mxGeometry>
        </mxCell>
        <mxCell id="CKVd2HSpRGfKYOYEBPOX-36" value="로그아웃" style="rounded=0;whiteSpace=wrap;html=1;" vertex="1" parent="1">
          <mxGeometry x="240" y="650" width="120" height="60" as="geometry" />
        </mxCell>
        <mxCell id="CKVd2HSpRGfKYOYEBPOX-37" value="채팅방생성요청" style="rounded=0;whiteSpace=wrap;html=1;" vertex="1" parent="1">
          <mxGeometry x="440" y="650" width="120" height="60" as="geometry" />
        </mxCell>
        <mxCell id="CKVd2HSpRGfKYOYEBPOX-38" value="채팅 메시지 전송" style="rounded=0;whiteSpace=wrap;html=1;" vertex="1" parent="1">
          <mxGeometry x="640" y="650" width="120" height="60" as="geometry" />
        </mxCell>
        <mxCell id="CKVd2HSpRGfKYOYEBPOX-43" style="edgeStyle=orthogonalEdgeStyle;rounded=0;orthogonalLoop=1;jettySize=auto;html=1;exitX=0.5;exitY=1;exitDx=0;exitDy=0;entryX=0;entryY=0;entryDx=100;entryDy=0;entryPerimeter=0;" edge="1" parent="1" source="CKVd2HSpRGfKYOYEBPOX-35" target="CKVd2HSpRGfKYOYEBPOX-3">
          <mxGeometry relative="1" as="geometry" />
        </mxCell>
        <mxCell id="CKVd2HSpRGfKYOYEBPOX-45" style="edgeStyle=orthogonalEdgeStyle;rounded=0;orthogonalLoop=1;jettySize=auto;html=1;exitX=0.5;exitY=1;exitDx=0;exitDy=0;entryX=0;entryY=0;entryDx=100;entryDy=0;entryPerimeter=0;" edge="1" parent="1" source="CKVd2HSpRGfKYOYEBPOX-37" target="CKVd2HSpRGfKYOYEBPOX-3">
          <mxGeometry relative="1" as="geometry" />
        </mxCell>
        <mxCell id="CKVd2HSpRGfKYOYEBPOX-46" style="edgeStyle=orthogonalEdgeStyle;rounded=0;orthogonalLoop=1;jettySize=auto;html=1;exitX=0.5;exitY=1;exitDx=0;exitDy=0;entryX=0;entryY=0;entryDx=100;entryDy=0;entryPerimeter=0;" edge="1" parent="1" source="CKVd2HSpRGfKYOYEBPOX-38" target="CKVd2HSpRGfKYOYEBPOX-3">
          <mxGeometry relative="1" as="geometry" />
        </mxCell>
        <mxCell id="CKVd2HSpRGfKYOYEBPOX-49" style="edgeStyle=orthogonalEdgeStyle;rounded=0;orthogonalLoop=1;jettySize=auto;html=1;exitX=1;exitY=0.5;exitDx=0;exitDy=0;entryX=0;entryY=0;entryDx=0;entryDy=30;entryPerimeter=0;" edge="1" parent="1" source="CKVd2HSpRGfKYOYEBPOX-9" target="CKVd2HSpRGfKYOYEBPOX-1">
          <mxGeometry relative="1" as="geometry" />
        </mxCell>
      </root>
    </mxGraphModel>
  </diagram>
</mxfile>
